<svg width="18" height="18" viewBox="0 0 18 18" fill="none" xmlns="http://www.w3.org/2000/svg">
<path fill-rule="evenodd" clip-rule="evenodd" d="M3.41275 6.30226L5.87875 12.2773C5.87875 12.2778 5.879 12.2783 5.87925 12.2788C5.8795 12.2793 5.87975 12.2798 5.87975 12.2803C5.90475 12.3423 5.91675 12.4063 5.91675 12.4703C5.91675 12.5393 5.90275 12.6043 5.87575 12.6653C5.85175 12.7203 5.81875 12.7703 5.77775 12.8143C5.73075 12.8643 5.67375 12.9033 5.60775 12.9303C5.59275 12.9363 5.55475 12.9483 5.53775 12.9513C5.52375 12.9543 5.43975 12.9673 5.42475 12.9673C5.37075 12.9673 5.31775 12.9583 5.26875 12.9403C5.22775 12.9253 5.19175 12.9073 5.15675 12.8863C5.11475 12.8593 5.07875 12.8283 5.04875 12.7943C5.01175 12.7533 4.98275 12.7053 4.96275 12.6513L4.27275 10.9743H1.64175L0.948754 12.6583C0.922754 12.7223 0.884754 12.7793 0.834754 12.8273C0.790754 12.8683 0.741754 12.9013 0.686754 12.9263C0.570754 12.9793 0.432754 12.9813 0.305754 12.9303C0.240754 12.9033 0.183754 12.8643 0.136754 12.8143C0.0917539 12.7663 0.058754 12.7113 0.035754 12.6523C0.014754 12.5973 0.00275395 12.5393 0.000753953 12.4823C-0.00324605 12.4133 0.00875395 12.3453 0.034754 12.2803L2.50075 6.30426C2.51975 6.25826 2.54575 6.21626 2.57675 6.17826C2.60675 6.14126 2.64275 6.10826 2.68275 6.08226C2.72475 6.05226 2.77175 6.03126 2.82275 6.01726C2.90975 5.99526 2.99775 5.99326 3.09175 6.01726C3.14275 6.03126 3.18975 6.05226 3.23175 6.08226C3.27175 6.10826 3.30775 6.14126 3.33775 6.17826C3.36875 6.21626 3.39475 6.25826 3.41275 6.30226ZM2.95875 7.79126L2.05375 9.98126H3.86175L2.95875 7.79126ZM11.6568 9.99626C11.5948 9.85426 11.5138 9.72626 11.4158 9.61426C11.3198 9.50426 11.2098 9.41026 11.0838 9.33126L10.9998 9.28226C11.0818 9.17526 11.1538 9.05426 11.2108 8.92226C11.2698 8.78826 11.3118 8.64026 11.3358 8.47926C11.3588 8.33126 11.3718 8.16926 11.3758 7.98626C11.3718 7.65526 11.3248 7.36326 11.2348 7.11826C11.1408 6.85726 10.9888 6.63926 10.7848 6.47026C10.5878 6.30626 10.3408 6.18526 10.0508 6.10926C9.77375 6.03726 9.43975 6.00026 9.05975 6.00026H7.33275C7.26375 6.00026 7.19975 6.01426 7.14375 6.04126C7.09275 6.06626 7.04575 6.09926 7.00575 6.14026C6.95675 6.18926 6.92075 6.24626 6.89875 6.31026C6.88075 6.36126 6.86975 6.41526 6.86275 6.49726L6.86875 12.4453C6.86075 12.5233 6.87375 12.6003 6.90575 12.6723C6.92875 12.7253 6.95875 12.7723 6.99375 12.8143C7.03575 12.8633 7.08875 12.9033 7.15175 12.9303C7.20975 12.9553 7.26875 12.9673 7.32875 12.9673H9.29375H9.29475C9.50975 12.9673 9.70175 12.9603 9.87075 12.9473C10.0438 12.9333 10.2018 12.9143 10.3468 12.8883C10.4998 12.8623 10.6358 12.8253 10.7538 12.7813C10.8738 12.7353 10.9848 12.6813 11.0898 12.6173C11.2098 12.5413 11.3198 12.4473 11.4158 12.3383C11.5138 12.2263 11.5948 12.0983 11.6568 11.9563C11.7148 11.8203 11.7608 11.6673 11.7908 11.5033C11.8208 11.3403 11.8348 11.1603 11.8318 10.9783C11.8348 10.7903 11.8208 10.6123 11.7908 10.4483C11.7608 10.2843 11.7148 10.1323 11.6568 9.99626ZM10.3838 7.50726C10.3678 7.45726 10.3468 7.41226 10.3198 7.37426C10.2888 7.32926 10.2538 7.29026 10.2168 7.25726C10.1708 7.21726 10.1128 7.18026 10.0488 7.14926C9.97775 7.11526 9.89575 7.08726 9.80375 7.06526C9.70475 7.04226 9.59475 7.02426 9.47375 7.01226C9.34875 6.99926 9.21075 6.99326 9.05975 6.99326H7.79375L7.79075 8.98426H9.05975C9.21075 8.98426 9.34875 8.97926 9.47375 8.96626C9.59475 8.95426 9.70475 8.93626 9.80375 8.91226C9.89575 8.89126 9.97775 8.86226 10.0488 8.82826C10.1128 8.79826 10.1708 8.76126 10.2188 8.71926C10.2538 8.68726 10.2888 8.64826 10.3198 8.60426C10.3468 8.56526 10.3678 8.52126 10.3838 8.47126C10.4048 8.40526 10.4208 8.33326 10.4338 8.25326C10.4468 8.17526 10.4518 8.08926 10.4488 7.99726C10.4518 7.88926 10.4468 7.80326 10.4338 7.72426C10.4208 7.64526 10.4048 7.57226 10.3838 7.50726ZM9.28975 11.9693H7.79075L7.79375 9.97826H9.23775C9.24068 9.97826 9.24682 9.97772 9.25461 9.97704L9.26375 9.97626C9.36397 9.98388 9.46388 9.98498 9.55801 9.98602C9.63671 9.98688 9.71136 9.9877 9.77875 9.99226C9.91575 10.0013 10.0408 10.0163 10.1528 10.0353C10.2578 10.0543 10.3498 10.0773 10.4278 10.1043C10.5008 10.1303 10.5678 10.1603 10.6198 10.1903C10.6548 10.2133 10.6928 10.2433 10.7308 10.2793C10.7578 10.3033 10.7828 10.3403 10.8068 10.3883C10.8348 10.4483 10.8598 10.5263 10.8818 10.6193C10.9028 10.7113 10.9118 10.8293 10.9088 10.9793C10.9118 11.1223 10.9028 11.2413 10.8818 11.3323C10.8608 11.4253 10.8358 11.5023 10.8068 11.5603C10.7838 11.6083 10.7568 11.6463 10.7278 11.6743C10.6898 11.7103 10.6538 11.7393 10.6278 11.7563C10.5678 11.7913 10.5008 11.8223 10.4278 11.8473C10.3498 11.8753 10.2578 11.8983 10.1528 11.9163C10.0418 11.9363 9.91775 11.9493 9.78075 11.9573C9.63875 11.9653 9.47475 11.9693 9.28975 11.9693ZM17.8358 12.0113C17.8448 11.9473 17.8418 11.8813 17.8278 11.8163C17.8128 11.7513 17.7878 11.6923 17.7618 11.6523C17.7248 11.5893 17.6778 11.5393 17.6218 11.5043C17.5738 11.4743 17.5228 11.4543 17.4718 11.4443C17.4198 11.4363 17.3668 11.4373 17.3128 11.4483C17.2508 11.4623 17.1928 11.4933 17.1478 11.5333C17.0618 11.6033 16.9668 11.6653 16.8638 11.7203C16.7608 11.7763 16.6478 11.8223 16.5268 11.8583C16.4018 11.8953 16.2678 11.9233 16.1238 11.9413C15.8038 11.9813 15.4288 11.9783 15.1218 11.9303C14.9568 11.9043 14.8048 11.8653 14.6698 11.8143C14.5338 11.7623 14.4098 11.6993 14.2988 11.6243C14.1888 11.5503 14.0898 11.4643 14.0078 11.3733C13.9248 11.2753 13.8488 11.1623 13.7838 11.0373C13.7188 10.9103 13.6638 10.7683 13.6188 10.6133C13.5738 10.4593 13.5388 10.2853 13.5168 10.0963C13.4938 9.90726 13.4828 9.70026 13.4828 9.48126C13.4828 9.26226 13.4938 9.05526 13.5168 8.86626C13.5388 8.67826 13.5738 8.50426 13.6188 8.34926C13.6638 8.19426 13.7188 8.05226 13.7838 7.92626C13.8478 7.80226 13.9228 7.69126 14.0058 7.59626C14.0918 7.49826 14.1908 7.41126 14.2988 7.33826C14.4098 7.26426 14.5338 7.20026 14.6698 7.14826C14.8048 7.09726 14.9568 7.05826 15.1218 7.03226C15.4278 6.98526 15.8018 6.98026 16.1228 7.02326C16.2668 7.04326 16.4008 7.07226 16.5268 7.10926C16.6498 7.14626 16.7618 7.19126 16.8668 7.24626C16.9668 7.29826 17.0608 7.36026 17.1528 7.43826C17.1988 7.47326 17.2488 7.49826 17.3008 7.51326C17.3588 7.52926 17.4158 7.53226 17.4718 7.52326C17.5278 7.51326 17.5808 7.49026 17.6308 7.45526C17.6798 7.42026 17.7208 7.37726 17.7618 7.31526C17.7918 7.26326 17.8138 7.20626 17.8278 7.14626C17.8418 7.08126 17.8448 7.01526 17.8358 6.95126C17.8268 6.88526 17.8058 6.82426 17.7738 6.76726C17.7478 6.72126 17.7158 6.67926 17.6618 6.62626C17.5358 6.52026 17.3958 6.42726 17.2458 6.34826C17.0998 6.27226 16.9408 6.20626 16.7738 6.15426C16.6078 6.10326 16.4298 6.06426 16.2448 6.03826C15.8428 5.98226 15.3678 5.98826 14.9738 6.05326C14.7578 6.08926 14.5528 6.14426 14.3638 6.21726C14.1728 6.29026 13.9938 6.38426 13.8328 6.49526C13.6708 6.60726 13.5228 6.74026 13.3918 6.88926C13.2608 7.03926 13.1438 7.21026 13.0458 7.39726C12.9488 7.58126 12.8668 7.78426 12.8028 8.00226C12.7398 8.21626 12.6908 8.44926 12.6578 8.69526C12.6248 8.94126 12.6088 9.20526 12.6088 9.48126C12.6088 9.75726 12.6248 10.0223 12.6578 10.2673C12.6908 10.5123 12.7388 10.7463 12.8028 10.9633C12.8668 11.1813 12.9488 11.3853 13.0468 11.5693C13.1438 11.7533 13.2608 11.9233 13.3918 12.0733C13.5228 12.2233 13.6708 12.3553 13.8328 12.4673C13.9938 12.5783 14.1718 12.6733 14.3628 12.7473C14.5528 12.8223 14.7578 12.8783 14.9738 12.9143C15.1878 12.9493 15.4188 12.9673 15.6608 12.9673C15.8658 12.9673 16.0608 12.9553 16.2448 12.9293C16.4298 12.9043 16.6078 12.8643 16.7738 12.8133C16.9408 12.7613 17.0998 12.6953 17.2468 12.6163C17.3958 12.5363 17.5358 12.4423 17.6648 12.3343C17.7088 12.2953 17.7458 12.2483 17.7768 12.1933C17.8068 12.1363 17.8268 12.0753 17.8358 12.0113Z" fill="#F18600"/>
</svg>
