<svg width="18" height="18" viewBox="0 0 18 18" fill="none" xmlns="http://www.w3.org/2000/svg">
<path fill-rule="evenodd" clip-rule="evenodd" d="M13.869 4.003H12.47V3.512C12.47 3.225 12.252 3 11.972 3C11.703 3 11.475 3.235 11.475 3.512V4.003H6.526V3.512C6.526 3.225 6.307 3 6.028 3C5.758 3 5.53 3.235 5.53 3.512V4.003H4.131C3.486 4.003 3 4.558 3 5.295V13.91C3 14.469 3.539 14.979 4.131 14.979H13.869C14.461 14.979 15 14.469 15 13.91V5.295C15 4.558 14.514 4.003 13.869 4.003ZM14.004 8.009V13.805C14.004 13.876 13.946 13.954 13.869 13.954H4.131C4.054 13.954 3.996 13.89 3.996 13.805V8.009H14.004ZM6.028 5.945C6.307 5.945 6.526 5.72 6.526 5.432V5.028H11.475V5.432C11.475 5.72 11.693 5.945 11.972 5.945C12.252 5.945 12.47 5.72 12.47 5.432V5.028H13.869C13.946 5.028 14.004 5.092 14.004 5.176V6.971H3.996V5.176C3.996 5.106 4.054 5.028 4.131 5.028H5.53V5.432C5.53 5.72 5.749 5.945 6.028 5.945ZM8.832 10.683C9.01 10.382 9.033 9.952 8.899 9.627C8.776 9.29 8.442 9.104 8.096 9.035C7.772 8.965 7.427 8.965 7.103 9C6.713 9.035 6.323 9.139 6.111 9.476C6.021 9.615 5.932 9.789 6.021 9.94C6.088 10.056 6.222 10.068 6.345 10.033C6.523 9.987 6.512 9.847 6.601 9.708C6.679 9.58 6.847 9.534 6.992 9.511C7.259 9.453 7.572 9.464 7.85 9.499C8.007 9.522 8.185 9.546 8.308 9.65C8.397 9.755 8.43 9.929 8.442 10.068C8.442 10.219 8.408 10.405 8.285 10.509C8.163 10.614 8.025 10.655 7.88 10.678C7.757 10.702 7.634 10.702 7.501 10.702C7.378 10.702 7.278 10.702 7.188 10.795C7.066 10.922 7.11 11.156 7.255 11.225C7.344 11.272 7.445 11.26 7.534 11.26C7.779 11.26 8.151 11.218 8.308 11.427C8.475 11.647 8.486 12.111 8.23 12.274C7.951 12.448 7.516 12.437 7.204 12.413C7.059 12.402 6.891 12.39 6.757 12.309C6.702 12.274 6.646 12.239 6.601 12.181C6.546 12.111 6.546 12.007 6.479 11.937C6.39 11.833 6.233 11.833 6.122 11.902C5.977 11.995 5.988 12.181 6.044 12.32C6.356 12.982 7.259 13.029 7.906 12.959C8.252 12.913 8.609 12.808 8.821 12.518C9.033 12.216 9.044 11.763 8.921 11.427C8.854 11.229 8.731 11.113 8.598 10.985C8.687 10.892 8.765 10.799 8.832 10.683ZM11.9746 9.16697C11.9636 9.14397 11.9516 9.11997 11.9406 9.09697C11.9286 9.07297 11.9166 9.06097 11.8936 9.04997C11.8706 9.02597 11.8476 9.01397 11.8016 9.00297C11.7776 8.99097 11.7666 8.99097 11.7436 8.99097C11.7316 8.99097 11.7196 8.99097 11.7086 8.99097H11.6506C11.6276 8.99097 11.6046 9.00297 11.5696 9.01397C11.5466 9.02597 11.5226 9.04997 11.5116 9.06097L10.0536 10.551C10.0416 10.575 10.0186 10.598 10.0186 10.61C9.99557 10.645 9.99557 10.681 9.99557 10.716C9.98357 10.751 9.99557 10.786 9.99557 10.81C10.0076 10.845 10.0306 10.868 10.0536 10.904C10.0766 10.927 10.0996 10.951 10.1456 10.962C10.2036 10.986 10.2856 10.986 10.3426 10.962C10.3776 10.951 10.4006 10.927 10.4356 10.904L11.4186 9.87197V12.736C11.4186 12.76 11.4306 12.783 11.4416 12.819C11.4536 12.854 11.4766 12.877 11.4996 12.901C11.5226 12.924 11.5466 12.948 11.5926 12.959C11.6276 12.971 11.6736 12.983 11.7086 12.983C11.7436 12.983 11.7896 12.971 11.8126 12.959C11.8476 12.948 11.8706 12.924 11.9056 12.901C11.9286 12.877 11.9406 12.854 11.9636 12.819C11.9746 12.783 11.9866 12.748 11.9866 12.713V9.21397C11.9866 9.21397 11.9746 9.19097 11.9746 9.16697Z" fill="#14B2E2"/>
</svg>
