<svg width="18" height="18" viewBox="0 0 18 18" fill="none" xmlns="http://www.w3.org/2000/svg">
<path d="M10 6.49774C10 6.28939 10.1689 6.12048 10.3773 6.12048L13.6227 6.12049C13.8311 6.12049 14 6.28939 14 6.49774C14 6.7061 13.8311 6.875 13.6227 6.875H10.3773C10.1689 6.875 10 6.7061 10 6.49774Z" fill="#00C18D"/>
<path d="M10 10.6253C10 10.417 10.1689 10.248 10.3773 10.248H13.6227C13.8311 10.248 14 10.417 14 10.6253C14 10.8337 13.8311 11.0026 13.6227 11.0026H10.3773C10.1689 11.0026 10 10.8337 10 10.6253Z" fill="#00C18D"/>
<path d="M10 12.3753C10 12.167 10.1689 11.998 10.3773 11.998H13.6227C13.8311 11.998 14 12.167 14 12.3753C14 12.5837 13.8311 12.7526 13.6227 12.7526H10.3773C10.1689 12.7526 10 12.5837 10 12.3753Z" fill="#00C18D"/>
<path d="M6.37707 4.87726C6.37707 4.6689 6.20817 4.5 5.99982 4.5C5.79146 4.5 5.62256 4.6689 5.62256 4.87726V6.12244H4.37726C4.1689 6.12244 4 6.29134 4 6.4997C4 6.70805 4.1689 6.87695 4.37726 6.87695H5.62256V8.12274C5.62256 8.3311 5.79146 8.5 5.99982 8.5C6.20817 8.5 6.37707 8.3311 6.37707 8.12274V6.87695H7.62274C7.8311 6.87695 8 6.70805 8 6.4997C8 6.29134 7.8311 6.12244 7.62274 6.12244H6.37707V4.87726Z" fill="#00C18D"/>
<path d="M7.39888 10.6196C7.54621 10.4723 7.54621 10.2334 7.39888 10.0861C7.25156 9.93875 7.01269 9.93875 6.86536 10.0861L5.98471 10.9667L5.10415 10.0862C4.95682 9.93884 4.71796 9.93884 4.57063 10.0862C4.4233 10.2335 4.4233 10.4724 4.57063 10.6197L5.45119 11.5002L4.57046 12.381C4.42313 12.5283 4.42313 12.7672 4.57046 12.9145C4.71779 13.0618 4.95665 13.0618 5.10398 12.9145L5.98471 12.0338L6.86553 12.9146C7.01286 13.0619 7.25173 13.0619 7.39906 12.9146C7.54639 12.7673 7.54639 12.5284 7.39906 12.3811L6.51824 11.5002L7.39888 10.6196Z" fill="#00C18D"/>
<path fill-rule="evenodd" clip-rule="evenodd" d="M5 2C3.34315 2 2 3.34315 2 5V13C2 14.6569 3.34315 16 5 16H13C14.6569 16 16 14.6569 16 13V5C16 3.34315 14.6569 2 13 2H5ZM13 2.75H5C3.75736 2.75 2.75 3.75736 2.75 5V13C2.75 14.2426 3.75736 15.25 5 15.25H13C14.2426 15.25 15.25 14.2426 15.25 13V5C15.25 3.75736 14.2426 2.75 13 2.75Z" fill="#00C18D"/>
</svg>
